<?xml version="1.0" encoding="utf-8"?>
<!-- Generator: Adobe Illustrator 16.0.0, SVG Export Plug-In . SVG Version: 6.00 Build 0)  -->
<!DOCTYPE svg PUBLIC "-//W3C//DTD SVG 1.1//EN" "http://www.w3.org/Graphics/SVG/1.1/DTD/svg11.dtd">
<svg version="1.1" id="图层_1" xmlns="http://www.w3.org/2000/svg" xmlns:xlink="http://www.w3.org/1999/xlink" x="0px" y="0px"
	 width="17px" height="16px" viewBox="0 0 17 16" enable-background="new 0 0 17 16" xml:space="preserve">
<title>文章</title>
<desc>Created with Sketch.</desc>
<g>
	<g>
		<polygon id="Shape_1_" fill="#39CA74" points="10.938,1.763 3.192,1.763 3.192,14.598 14.328,14.598 14.328,5.263 		"/>
		<path fill="#39CA74" d="M14.328,15.098H3.192c-0.276,0-0.5-0.224-0.5-0.5V1.763c0-0.276,0.224-0.5,0.5-0.5h7.746
			c0.138,0,0.267,0.055,0.359,0.152l3.391,3.5c0.09,0.093,0.143,0.218,0.143,0.348v9.334C14.828,14.874,14.604,15.098,14.328,15.098
			z M3.692,14.098h10.136V5.466l-3.104-3.203H3.692V14.098z"/>
	</g>
	<path fill="#1D2530" d="M11.361,12.034H6.158c-0.276,0-0.5-0.224-0.5-0.5s0.224-0.5,0.5-0.5h5.203c0.275,0,0.5,0.224,0.5,0.5
		S11.639,12.034,11.361,12.034z"/>
	<path fill="#1D2530" d="M11.361,9.409H6.158c-0.276,0-0.5-0.224-0.5-0.5s0.224-0.5,0.5-0.5h5.203c0.275,0,0.5,0.224,0.5,0.5
		S11.639,9.409,11.361,9.409z"/>
	<polygon fill="#1D2530" points="14.828,6.594 10.033,6.594 10.051,1.238 11.051,1.241 11.037,5.594 14.828,5.594 	"/>
</g>
</svg>
