<?xml version="1.0" encoding="utf-8"?>
<!-- Generator: Adobe Illustrator 16.0.0, SVG Export Plug-In . SVG Version: 6.00 Build 0)  -->
<!DOCTYPE svg PUBLIC "-//W3C//DTD SVG 1.1//EN" "http://www.w3.org/Graphics/SVG/1.1/DTD/svg11.dtd">
<svg version="1.1" id="图层_1" xmlns="http://www.w3.org/2000/svg" xmlns:xlink="http://www.w3.org/1999/xlink" x="0px" y="0px"
	 width="16px" height="16px" viewBox="0 0 16 16" enable-background="new 0 0 16 16" xml:space="preserve">
<g>
	<title>警告</title>
	<desc>Created with Sketch.</desc>
	<g id="警告" transform="translate(103.000000, 13.000000)">
		<g id="XMLID_1_">
			<g>
				<path fill="#E75843" d="M-94-8v3c0,0.55-0.45,1-1,1s-1-0.45-1-1v-3c0-0.55,0.45-1,1-1S-94-8.55-94-8z"/>
				<circle fill="#E75843" cx="-95" cy="-2" r="1"/>
			</g>
			<g>
				<path fill="none" stroke="#E75843" d="M-95-12c3.87,0,7,3.13,7,7c0,1.94-0.78,3.68-2.05,4.95C-91.32,1.22-93.06,2-95,2
					c-1.94,0-3.68-0.78-4.95-2.05C-101.22-1.32-102-3.06-102-5c0-1.94,0.78-3.68,2.05-4.95S-96.94-12-95-12z"/>
			</g>
		</g>
	</g>
</g>
</svg>
